<?xml version="1.0" encoding="iso-8859-1"?>
<!-- Uploaded to: SVG Repo, www.svgrepo.com, Generator: SVG Repo Mixer Tools -->
<svg version="1.1" id="Layer_1" xmlns="http://www.w3.org/2000/svg" xmlns:xlink="http://www.w3.org/1999/xlink" 
	 viewBox="0 0 508 508" xml:space="preserve">
<circle style="fill:#FFD05B;" cx="254" cy="254" r="254"/>
<path style="fill:#2B3B4E;" d="M256.8,177.6h-100v119.6c64.4-17.2,100.4,24,100.4,24s36-41.2,100.4-24V177.6H256.8z"/>
<polygon style="fill:#F1543F;" points="252.8,349.2 233.2,349.2 233.2,398 252.8,381.6 272.4,398 272.4,349.2 "/>
<path style="fill:#E6E9EE;" d="M418.8,277.6c-109.6,14.4-221.6,14.4-331.6,0l0,0v96.8l0,0c109.6-14.4,221.6-14.4,331.6,0l0,0V277.6
	L418.8,277.6z"/>
<path style="fill:#FF7058;" d="M275.6,288.4V364c-7.6,0-15.2,0-22.4,0c-7.6,0-15.2,0-22.4,0v-75.6
	C245.6,288.8,260.4,288.8,275.6,288.4z"/>
<polygon style="fill:#F9B54C;" points="409.2,304 368,304 376.8,269.2 400.4,269.2 "/>
<rect x="384.8" y="177.6" style="fill:#FF7058;" width="8" height="103.2"/>
<polygon style="fill:#324A5E;" points="256.8,110 92.8,177.6 256.8,244.8 420.8,177.6 "/>
<circle style="fill:#FFD05B;" cx="388.8" cy="269.2" r="16.4"/>
</svg>